<svg id="Layer_1" data-name="Layer 1" xmlns="http://www.w3.org/2000/svg" viewBox="0 0 512 512"><defs><style>.cls-1{fill:#898989;}</style></defs><title>headphones-other</title><path class="cls-1" d="M96.71,477.87H51.2A51.26,51.26,0,0,1,0,426.67V358.4a51.26,51.26,0,0,1,51.2-51.2H96.71a5.69,5.69,0,0,1,5.69,5.69V472.18A5.69,5.69,0,0,1,96.71,477.87ZM51.2,318.58A39.87,39.87,0,0,0,11.38,358.4v68.27A39.87,39.87,0,0,0,51.2,466.49H91V318.58Z"/><path class="cls-1" d="M460.8,477.87H415.29a5.69,5.69,0,0,1-5.69-5.69V312.89a5.69,5.69,0,0,1,5.69-5.69H460.8A51.26,51.26,0,0,1,512,358.4v68.27A51.26,51.26,0,0,1,460.8,477.87ZM421,466.49H460.8a39.87,39.87,0,0,0,39.82-39.82V358.4a39.87,39.87,0,0,0-39.82-39.82H421Z"/><path class="cls-1" d="M460.8,318.58a5.69,5.69,0,0,1-5.69-5.69V244.62c0-109.79-89.32-199.11-199.11-199.11S56.89,134.83,56.89,244.62v68.27a5.69,5.69,0,1,1-11.38,0V244.62C45.51,128.56,139.93,34.13,256,34.13s210.49,94.42,210.49,210.49v68.27A5.69,5.69,0,0,1,460.8,318.58Z"/></svg>